PathFileType	3	(X/Y/Z)	D:\minhoCalibration\240510\subject4_KPNP\preferred\preferred09.trc
DataRate	CameraRate	NumFrames	NumMarkers	Units	OrigDataRate	OrigDataStartFrame	OrigNumFrames
200.0	200.0	25	10	mm	200.0	361	83	
Frame#	Time	Left_Ankle_Outer1			Left_Ankle_Inner1			Left_Knee_Outer1			Left_Knee_Inner1			Left_Wrist1			Right_Wrist1			Right_Knee_Inner1			Right_Knee_Outer1			Right_Ankle_Inner1			Right_Ankle_Outer1			
		X1	Y1	Z1	X2	Y2	Z2	X3	Y3	Z3	X4	Y4	Z4	X5	Y5	Z5	X6	Y6	Z6	X7	Y7	Z7	X8	Y8	Z8	X9	Y9	Z9	X10	Y10	Z10	
361	1.795	-413.12845	1216.5706	318.68777	-418.19089	1112.7739	320.6506	-236.14586	1114.4434	795.32996	-276.06815	1029.6173	768.21063	-370.37601	1243.1361	1171.9282	-376.65198	934.83063	1384.7325	-258.56784	570.80316	1129.9247	-259.33206	584.7912	1240.0548	-434.43439	134.70779	1214.7261	-413.01373	142.90517	1266.7782
362	1.8	-422.05527	1209.9723	320.34189	-418.87967	1105.0032	319.52097	-234.22112	1116.5214	797.46594	-269.31461	1035.4326	770.98926	-375.93112	1244.3273	1167.5878	-372.79425	935.12012	1380.3167	-262.01599	570.65717	1124.0682	-260.19962	584.46484	1233.813	-434.61685	134.55241	1214.8763	-412.21466	143.26247	1266.5452
363	1.805	-429.76953	1200.9384	319.26349	-421.55927	1096.026	320.2438	-235.10565	1121.7754	799.61249	-264.47446	1041.7145	773.63367	-381.97238	1245.4248	1163.5442	-369.22391	935.19885	1375.7531	-265.53931	570.92023	1117.8271	-260.4541	584.66534	1227.428	-434.85309	134.50841	1215.2939	-411.2009	143.80089	1266.278
364	1.81	-437.10794	1190.7211	317.17651	-423.71948	1086.5509	320.78735	-238.17258	1130.4175	800.67975	-260.78494	1048.118	775.61847	-388.54062	1245.875	1159.5024	-366.15012	935.01007	1371.2031	-269.10556	571.44531	1111.3569	-260.65848	585.10925	1220.307	-434.59113	134.81439	1215.5741	-409.94809	144.49928	1266.006
365	1.815	-443.94135	1179.6183	314.83475	-424.05515	1075.714	320.01468	-242.88019	1140.009	801.0766	-257.40247	1054.9279	777.22534	-395.40488	1245.821	1156.3232	-363.59787	934.74896	1366.5829	-272.28113	571.98828	1104.6498	-260.7179	585.88629	1213.2368	-434.38675	134.91579	1215.7231	-408.72787	145.31755	1265.7549
366	1.82	-449.6781	1167.5688	312.81296	-424.67953	1064.3376	319.37292	-248.85509	1149.2731	801.1698	-253.95284	1061.8269	778.68109	-402.02295	1245.4406	1153.3413	-361.57208	934.40472	1361.8547	-275.68991	572.3916	1098.1139	-260.4101	586.90405	1206.2563	-434.0954	135.33717	1215.4714	-407.35455	146.32629	1265.33
367	1.825	-455.22202	1154.3169	311.40488	-423.39462	1053.8622	319.15179	-257.01562	1158.1226	800.65704	-250.15596	1069.1902	780.08795	-408.76364	1244.8821	1150.6652	-360.15891	934.1842	1357.2842	-279.22659	573.0072	1091.931	-260.01047	587.87109	1199.2761	-433.9751	136.24211	1215.241	-406.10526	147.46579	1264.5782
368	1.83	-460.00247	1139.7815	310.65686	-420.42542	1042.4027	318.91577	-267.29269	1165.7811	798.60883	-246.84688	1076.9187	781.03271	-415.17767	1244.3373	1148.3256	-359.08731	934.04407	1352.8007	-282.82245	573.60083	1086.1453	-259.38071	588.77521	1192.282	-433.70526	136.66954	1214.7346	-404.93179	148.77545	1263.3977
369	1.835	-464.10516	1123.637	310.05893	-416.6001	1030.2161	319.05701	-279.20374	1171.7611	795.29169	-244.51526	1084.9448	781.06952	-421.73395	1243.9829	1146.2023	-358.03162	933.97723	1348.4358	-285.92935	574.17462	1080.2977	-258.3595	589.67676	1185.9048	-433.83865	137.53656	1214.1143	-403.83084	150.04996	1261.8883
370	1.84	-467.48941	1107.3286	310.125	-413.02026	1017.8579	319.45883	-291.25299	1175.7739	791.56525	-244.06717	1092.113	780.42395	-427.95679	1243.916	1144.4924	-356.73767	933.8783	1344.4456	-288.45932	575.02313	1074.6245	-257.80569	590.42035	1178.9905	-433.64923	138.3532	1212.8567	-402.84283	151.26762	1260.0726
371	1.845	-469.75912	1091.051	309.69553	-409.94836	1005.056	320.25192	-302.7157	1178.0315	788.38281	-245.31224	1097.34	779.39178	-434.24573	1243.5728	1143.3472	-354.88101	933.70624	1340.953	-291.05045	575.81793	1069.348	-257.00156	591.05542	1172.5861	-433.53549	138.91306	1211.6948	-402.00998	152.45963	1257.9768
372	1.85	-470.94632	1074.6517	309.3129	-407.21045	991.90894	321.55161	-313.06229	1178.3191	785.90332	-247.94858	1100.0397	778.65289	-440.12491	1243.4579	1143.047	-352.47485	933.46356	1337.9849	-294.18161	576.72998	1064.84	-256.26062	591.70367	1166.5189	-433.57205	139.59894	1210.0778	-401.4014	153.40544	1255.8625
373	1.855	-471.27808	1057.6707	308.64594	-404.60553	978.34662	323.21844	-321.42923	1177.1677	784.0296	-251.39389	1100.7019	778.36786	-445.54263	1243.0026	1143.2881	-349.47995	932.96942	1335.1715	-296.1366	577.51953	1060.1718	-255.60326	592.20502	1160.8945	-433.81573	139.931	1208.1808	-400.95151	154.2372	1253.6344
374	1.86	-471.96835	1040.8419	309.07629	-401.88684	964.59772	325.39639	-327.27042	1175.0723	782.03058	-255.49779	1099.7178	778.33563	-450.43198	1242.6643	1143.7728	-345.92215	932.65558	1332.2748	-298.59543	577.99017	1056.1338	-255.045	592.63245	1155.8402	-434.09875	140.35146	1206.4149	-400.67392	154.90224	1251.3337
375	1.865	-472.38608	1023.4576	309.63492	-399.28433	950.4917	327.96423	-331.0795	1172.4698	779.59027	-260.0517	1097.3733	778.18109	-454.60907	1241.8767	1144.095	-341.93195	932.56744	1329.1141	-300.91284	578.63098	1052.7682	-254.75511	592.9953	1151.2867	-434.6882	140.55219	1204.688	-400.69031	155.40968	1249.3304
376	1.87	-472.52463	1005.5034	310.56424	-396.77274	936.15381	331.00525	-334.21225	1169.5001	776.8252	-264.79022	1094.05	777.99731	-458.65201	1240.9847	1144.3456	-337.84424	932.73956	1325.7842	-302.38278	578.99823	1049.4409	-254.48831	593.15942	1147.2864	-435.66464	140.50826	1203.3552	-400.8833	155.79526	1247.5043
377	1.875	-473.26859	987.25842	312.09937	-394.42575	921.62219	334.44357	-337.41562	1166.155	774.11212	-269.10849	1090.9556	777.97473	-462.67099	1239.5557	1144.1499	-333.68811	932.97467	1322.4196	-304.03983	578.83557	1046.6101	-254.46394	593.01422	1143.7708	-436.37231	140.28252	1202.2375	-401.2092	156.04927	1245.9957
378	1.88	-473.84854	968.34607	314.21619	-392.50888	906.7876	338.24942	-341.27344	1162.8136	771.75885	-274.90741	1086.6403	778.25983	-466.83658	1237.9833	1143.8365	-329.69424	933.37219	1319.2446	-305.63187	578.71393	1044.5569	-254.5712	592.68445	1140.63	-437.07703	140.10918	1201.3792	-401.67871	155.99074	1244.8495
379	1.885	-474.28046	948.54761	316.72928	-391.42075	890.98401	341.40427	-345.59766	1159.6031	769.83423	-280.11844	1082.7883	778.6178	-471.16818	1235.9771	1143.5598	-325.75531	934.00659	1316.2565	-306.52036	577.72308	1042.3145	-254.85951	591.99713	1137.8378	-438.16827	139.71692	1200.9246	-402.29041	155.87549	1244.0679
380	1.89	-475.80878	928.77905	320.91824	-389.7066	875.60034	346.04391	-350.15546	1156.1969	768.45312	-284.95291	1079.2428	778.73505	-475.61581	1234.0403	1143.3555	-321.81631	934.62384	1313.3582	-307.33255	576.62799	1040.4435	-255.24164	591.0694	1135.5343	-438.98477	139.14157	1201.0566	-402.97354	155.51724	1243.8105
381	1.895	-477.04633	908.11658	325.49429	-388.88266	859.57684	350.58722	-356.12408	1152.6877	766.60028	-289.79269	1075.8571	778.4386	-479.07214	1230.9122	1143.1836	-317.99603	935.30939	1310.7186	-307.85944	575.13409	1038.7891	-255.81804	589.83771	1133.5081	-439.797	138.49385	1201.5266	-403.6745	154.98477	1243.964
382	1.9	-478.289	886.9809	331.29556	-387.29813	843.84076	355.86096	-361.79797	1148.7472	764.84302	-294.82535	1072.1769	777.94843	-482.65524	1227.9658	1143.0275	-314.36166	935.93164	1308.2941	-308.95584	572.98352	1037.7759	-256.50858	588.23718	1131.8519	-440.86356	137.77426	1202.4471	-404.21719	154.41463	1244.452
383	1.905	-479.85623	865.06989	337.96509	-386.0423	827.87549	361.33597	-368.0191	1144.5452	762.90948	-299.76364	1069.181	777.16034	-486.11633	1224.8093	1142.7783	-310.94562	936.49731	1306.028	-309.48865	570.90381	1036.4816	-257.14648	586.46741	1130.4839	-441.92068	137.14719	1204.03	-404.681	153.72394	1245.4012
384	1.91	-481.81866	843.06995	345.24335	-385.88708	811.50189	366.45709	-374.50381	1139.6431	760.53119	-304.02081	1066.4943	775.95129	-489.12079	1221.6501	1142.5465	-307.75906	936.8833	1303.8622	-310.71252	568.68005	1035.698	-257.91733	584.34851	1129.2445	-442.80566	136.06285	1205.6931	-405.01041	152.9671	1246.6451
385	1.915	-483.15747	821.16113	353.62329	-384.83002	795.78088	373.23569	-381.50482	1134.825	758.16162	-308.55072	1063.99	774.41418	-491.89981	1217.8906	1142	-304.80597	937.07855	1301.9377	-311.68173	566.64191	1034.8085	-258.63449	582.41754	1128.311	-443.55563	135.14326	1207.5525	-405.06271	152.08302	1248.1897
